<?xml version="1.0" standalone="no"?>
<!DOCTYPE svg PUBLIC "-//W3C//DTD SVG 20010904//EN"
 "http://www.w3.org/TR/2001/REC-SVG-20010904/DTD/svg10.dtd">
<svg version="1.0" xmlns="http://www.w3.org/2000/svg"
 width="47.000000pt" height="41.000000pt" viewBox="0 0 47.000000 41.000000"
 preserveAspectRatio="xMidYMid meet">

<g transform="translate(0.000000,41.000000) scale(0.100000,-0.100000)"
fill="#1c7ed6" stroke="none">
<path d="M140 348 c-41 -22 -51 -54 -48 -160 3 -86 6 -100 26 -120 21 -21 31
-23 132 -23 151 0 155 4 155 155 0 101 -2 111 -23 132 -20 20 -34 23 -120 26
-65 2 -105 -2 -122 -10z m47 -90 c11 -13 28 -38 37 -56 9 -18 28 -37 43 -43
21 -8 23 -12 13 -24 -7 -8 -20 -15 -30 -15 -20 0 -75 57 -84 88 -4 10 -18 24
-32 31 -21 9 -24 14 -14 26 18 21 43 18 67 -7z m110 0 c11 -13 28 -38 37 -56
9 -18 28 -37 43 -43 21 -8 23 -12 13 -24 -7 -8 -20 -15 -30 -15 -20 0 -75 57
-84 88 -4 10 -18 24 -32 31 -21 9 -24 14 -14 26 18 21 43 18 67 -7z"/>
</g>
</svg>
